{
    "asset" : {
        "generator" : "Khronos glTF Blender I/O v3.2.40",
        "version" : "2.0"
    },
    "scene" : 0,
    "scenes" : [
        {
            "name" : "Scene",
            "nodes" : [
                0,
                1,
                2,
                3
            ]
        }
    ],
    "nodes" : [
        {
            "mesh" : 0,
            "name" : "bookshelf"
        },
        {
            "mesh" : 1,
            "name" : "haruhi suzumiya",
            "translation" : [
                0.12462478876113892,
                0.02142953872680664,
                0.7696990370750427
            ]
        },
        {
            "mesh" : 2,
            "name" : "haruhi circle",
            "translation" : [
                0.021082252264022827,
                0.01741895079612732,
                0.7087665796279907
            ]
        },
        {
            "mesh" : 3,
            "name" : "support_board",
            "scale" : [
                1,
                0.9067192673683167,
                0.9067192673683167
            ],
            "translation" : [
                -0.04090683162212372,
                0.9164445996284485,
                -0.2570725679397583
            ]
        }
    ],
    "materials" : [
        {
            "doubleSided" : true,
            "name" : "Material.001",
            "pbrMetallicRoughness" : {
                "baseColorFactor" : [
                    0.7330247163772583,
                    0.7330247163772583,
                    0.7330247163772583,
                    1
                ],
                "metallicFactor" : 0,
                "roughnessFactor" : 0.1409091055393219
            }
        },
        {
            "doubleSided" : true,
            "name" : "Material.005",
            "pbrMetallicRoughness" : {
                "baseColorFactor" : [
                    1,
                    0,
                    0,
                    1
                ],
                "metallicFactor" : 0
            }
        },
        {
            "doubleSided" : true,
            "name" : "haruhi circle",
            "pbrMetallicRoughness" : {
                "baseColorFactor" : [
                    0,
                    0,
                    0,
                    1
                ],
                "metallicFactor" : 0
            }
        },
        {
            "doubleSided" : true,
            "name" : "haruhi circle inside",
            "pbrMetallicRoughness" : {
                "metallicFactor" : 0
            }
        },
        {
            "doubleSided" : true,
            "name" : "haruhi circle inside.001",
            "pbrMetallicRoughness" : {
                "baseColorFactor" : [
                    1,
                    0,
                    0,
                    1
                ],
                "metallicFactor" : 0
            }
        },
        {
            "doubleSided" : true,
            "name" : "Material.004",
            "pbrMetallicRoughness" : {
                "baseColorFactor" : [
                    0.3900941014289856,
                    0.3900941014289856,
                    0.3900941014289856,
                    1
                ],
                "metallicFactor" : 0,
                "roughnessFactor" : 0
            }
        }
    ],
    "meshes" : [
        {
            "name" : "Cube.001",
            "primitives" : [
                {
                    "attributes" : {
                        "POSITION" : 0,
                        "NORMAL" : 1,
                        "TEXCOORD_0" : 2
                    },
                    "indices" : 3,
                    "material" : 0
                }
            ]
        },
        {
            "name" : "Text",
            "primitives" : [
                {
                    "attributes" : {
                        "POSITION" : 4,
                        "NORMAL" : 5,
                        "TEXCOORD_0" : 6
                    },
                    "indices" : 7,
                    "material" : 1
                }
            ]
        },
        {
            "name" : "Circle",
            "primitives" : [
                {
                    "attributes" : {
                        "POSITION" : 8,
                        "NORMAL" : 9,
                        "TEXCOORD_0" : 10
                    },
                    "indices" : 11,
                    "material" : 2
                },
                {
                    "attributes" : {
                        "POSITION" : 12,
                        "NORMAL" : 13,
                        "TEXCOORD_0" : 14
                    },
                    "indices" : 15,
                    "material" : 3
                },
                {
                    "attributes" : {
                        "POSITION" : 16,
                        "NORMAL" : 17,
                        "TEXCOORD_0" : 18
                    },
                    "indices" : 19,
                    "material" : 4
                }
            ]
        },
        {
            "name" : "Plane",
            "primitives" : [
                {
                    "attributes" : {
                        "POSITION" : 20,
                        "NORMAL" : 21,
                        "TEXCOORD_0" : 22
                    },
                    "indices" : 23,
                    "material" : 5
                }
            ]
        }
    ],
    "accessors" : [
        {
            "bufferView" : 0,
            "componentType" : 5126,
            "count" : 120,
            "max" : [
                25.776199340820312,
                0.021353701129555702,
                0.8994454741477966
            ],
            "min" : [
                -25.77051544189453,
                -5.018007755279541,
                -1.1530020236968994
            ],
            "type" : "VEC3"
        },
        {
            "bufferView" : 1,
            "componentType" : 5126,
            "count" : 120,
            "type" : "VEC3"
        },
        {
            "bufferView" : 2,
            "componentType" : 5126,
            "count" : 120,
            "type" : "VEC2"
        },
        {
            "bufferView" : 3,
            "componentType" : 5123,
            "count" : 180,
            "type" : "SCALAR"
        },
        {
            "bufferView" : 4,
            "componentType" : 5126,
            "count" : 2078,
            "max" : [
                1.2376289367675781,
                0.004999999888241291,
                0.042089998722076416
            ],
            "min" : [
                0.01372500043362379,
                -0.004999999888241291,
                -0.12645301222801208
            ],
            "type" : "VEC3"
        },
        {
            "bufferView" : 5,
            "componentType" : 5126,
            "count" : 2078,
            "type" : "VEC3"
        },
        {
            "bufferView" : 6,
            "componentType" : 5126,
            "count" : 2078,
            "type" : "VEC2"
        },
        {
            "bufferView" : 7,
            "componentType" : 5123,
            "count" : 3708,
            "type" : "SCALAR"
        },
        {
            "bufferView" : 8,
            "componentType" : 5126,
            "count" : 134,
            "max" : [
                0.08000004291534424,
                0.012940164655447006,
                0.08000004291534424
            ],
            "min" : [
                -0.08000004291534424,
                0,
                -0.08000004291534424
            ],
            "type" : "VEC3"
        },
        {
            "bufferView" : 9,
            "componentType" : 5126,
            "count" : 134,
            "type" : "VEC3"
        },
        {
            "bufferView" : 10,
            "componentType" : 5126,
            "count" : 134,
            "type" : "VEC2"
        },
        {
            "bufferView" : 11,
            "componentType" : 5123,
            "count" : 234,
            "type" : "SCALAR"
        },
        {
            "bufferView" : 12,
            "componentType" : 5126,
            "count" : 50,
            "max" : [
                0.0701291561126709,
                0.012940164655447006,
                0.0701291561126709
            ],
            "min" : [
                -0.0701291561126709,
                0.012940164655447006,
                -0.0701291561126709
            ],
            "type" : "VEC3"
        },
        {
            "bufferView" : 13,
            "componentType" : 5126,
            "count" : 50,
            "type" : "VEC3"
        },
        {
            "bufferView" : 14,
            "componentType" : 5126,
            "count" : 50,
            "type" : "VEC2"
        },
        {
            "bufferView" : 15,
            "componentType" : 5123,
            "count" : 132,
            "type" : "SCALAR"
        },
        {
            "bufferView" : 16,
            "componentType" : 5126,
            "count" : 36,
            "max" : [
                0.05170401930809021,
                0.012940164655447006,
                0.04920274019241333
            ],
            "min" : [
                -0.05421941727399826,
                0.012940164655447006,
                -0.060360852628946304
            ],
            "type" : "VEC3"
        },
        {
            "bufferView" : 17,
            "componentType" : 5126,
            "count" : 36,
            "type" : "VEC3"
        },
        {
            "bufferView" : 18,
            "componentType" : 5126,
            "count" : 36,
            "type" : "VEC2"
        },
        {
            "bufferView" : 19,
            "componentType" : 5123,
            "count" : 90,
            "type" : "SCALAR"
        },
        {
            "bufferView" : 20,
            "componentType" : 5126,
            "count" : 368,
            "max" : [
                0.24875196814537048,
                1.0148242712020874,
                0.8740453720092773
            ],
            "min" : [
                -0.03149327635765076,
                -0.9982194304466248,
                -0.8429422974586487
            ],
            "type" : "VEC3"
        },
        {
            "bufferView" : 21,
            "componentType" : 5126,
            "count" : 368,
            "type" : "VEC3"
        },
        {
            "bufferView" : 22,
            "componentType" : 5126,
            "count" : 368,
            "type" : "VEC2"
        },
        {
            "bufferView" : 23,
            "componentType" : 5123,
            "count" : 720,
            "type" : "SCALAR"
        }
    ],
    "bufferViews" : [
        {
            "buffer" : 0,
            "byteLength" : 1440,
            "byteOffset" : 0
        },
        {
            "buffer" : 0,
            "byteLength" : 1440,
            "byteOffset" : 1440
        },
        {
            "buffer" : 0,
            "byteLength" : 960,
            "byteOffset" : 2880
        },
        {
            "buffer" : 0,
            "byteLength" : 360,
            "byteOffset" : 3840
        },
        {
            "buffer" : 0,
            "byteLength" : 24936,
            "byteOffset" : 4200
        },
        {
            "buffer" : 0,
            "byteLength" : 24936,
            "byteOffset" : 29136
        },
        {
            "buffer" : 0,
            "byteLength" : 16624,
            "byteOffset" : 54072
        },
        {
            "buffer" : 0,
            "byteLength" : 7416,
            "byteOffset" : 70696
        },
        {
            "buffer" : 0,
            "byteLength" : 1608,
            "byteOffset" : 78112
        },
        {
            "buffer" : 0,
            "byteLength" : 1608,
            "byteOffset" : 79720
        },
        {
            "buffer" : 0,
            "byteLength" : 1072,
            "byteOffset" : 81328
        },
        {
            "buffer" : 0,
            "byteLength" : 468,
            "byteOffset" : 82400
        },
        {
            "buffer" : 0,
            "byteLength" : 600,
            "byteOffset" : 82868
        },
        {
            "buffer" : 0,
            "byteLength" : 600,
            "byteOffset" : 83468
        },
        {
            "buffer" : 0,
            "byteLength" : 400,
            "byteOffset" : 84068
        },
        {
            "buffer" : 0,
            "byteLength" : 264,
            "byteOffset" : 84468
        },
        {
            "buffer" : 0,
            "byteLength" : 432,
            "byteOffset" : 84732
        },
        {
            "buffer" : 0,
            "byteLength" : 432,
            "byteOffset" : 85164
        },
        {
            "buffer" : 0,
            "byteLength" : 288,
            "byteOffset" : 85596
        },
        {
            "buffer" : 0,
            "byteLength" : 180,
            "byteOffset" : 85884
        },
        {
            "buffer" : 0,
            "byteLength" : 4416,
            "byteOffset" : 86064
        },
        {
            "buffer" : 0,
            "byteLength" : 4416,
            "byteOffset" : 90480
        },
        {
            "buffer" : 0,
            "byteLength" : 2944,
            "byteOffset" : 94896
        },
        {
            "buffer" : 0,
            "byteLength" : 1440,
            "byteOffset" : 97840
        }
    ],
    "buffers" : [
        {
            "byteLength" : 99280,
            "uri" : "data:application/octet-stream;base64,"
        }
    ]
}
