{
    "asset" : {
        "generator" : "Khronos glTF Blender I/O v3.2.40",
        "version" : "2.0"
    },
    "scene" : 0,
    "scenes" : [
        {
            "name" : "Scene",
            "nodes" : [
                0,
                1,
                2,
                3
            ]
        }
    ],
    "nodes" : [
        {
            "mesh" : 0,
            "name" : "bookshelf"
        },
        {
            "mesh" : 1,
            "name" : "support_board",
            "scale" : [
                1,
                0.9067192673683167,
                0.9067192673683167
            ],
            "translation" : [
                -0.04090683162212372,
                0.9164445996284485,
                -0.2570725679397583
            ]
        },
        {
            "mesh" : 2,
            "name" : "haruhi no",
            "translation" : [
                0.021082252264022827,
                0.027687661349773407,
                0.7087665796279907
            ]
        },
        {
            "mesh" : 3,
            "name" : "haruhi suzumiya",
            "translation" : [
                0.1371399611234665,
                0.02142953872680664,
                0.7626272439956665
            ]
        }
    ],
    "materials" : [
        {
            "doubleSided" : true,
            "name" : "Material.001",
            "pbrMetallicRoughness" : {
                "baseColorFactor" : [
                    0.7330247163772583,
                    0.7330247163772583,
                    0.7330247163772583,
                    1
                ],
                "metallicFactor" : 0,
                "roughnessFactor" : 0.1409091055393219
            }
        },
        {
            "doubleSided" : true,
            "name" : "Material.004",
            "pbrMetallicRoughness" : {
                "baseColorFactor" : [
                    0.3900941014289856,
                    0.3900941014289856,
                    0.3900941014289856,
                    1
                ],
                "metallicFactor" : 0,
                "roughnessFactor" : 0
            }
        },
        {
            "doubleSided" : true,
            "name" : "haruhi no yellow",
            "pbrMetallicRoughness" : {
                "baseColorFactor" : [
                    0.9878134727478027,
                    1,
                    0.622944176197052,
                    1
                ],
                "metallicFactor" : 0,
                "roughnessFactor" : 0.5
            }
        },
        {
            "doubleSided" : true,
            "name" : "haruhi no black",
            "pbrMetallicRoughness" : {
                "baseColorFactor" : [
                    0,
                    0,
                    0,
                    1
                ],
                "metallicFactor" : 0,
                "roughnessFactor" : 0.5
            }
        },
        {
            "doubleSided" : true,
            "name" : "haruhi no red",
            "pbrMetallicRoughness" : {
                "baseColorFactor" : [
                    0.8770298957824707,
                    0.13660800457000732,
                    0.13660800457000732,
                    1
                ],
                "metallicFactor" : 0,
                "roughnessFactor" : 0.5
            }
        },
        {
            "doubleSided" : true,
            "name" : "Material.005",
            "pbrMetallicRoughness" : {
                "baseColorFactor" : [
                    1,
                    0,
                    0,
                    1
                ],
                "metallicFactor" : 0
            }
        }
    ],
    "meshes" : [
        {
            "name" : "Cube.001",
            "primitives" : [
                {
                    "attributes" : {
                        "POSITION" : 0,
                        "NORMAL" : 1,
                        "TEXCOORD_0" : 2
                    },
                    "indices" : 3,
                    "material" : 0
                }
            ]
        },
        {
            "name" : "Plane",
            "primitives" : [
                {
                    "attributes" : {
                        "POSITION" : 4,
                        "NORMAL" : 5,
                        "TEXCOORD_0" : 6
                    },
                    "indices" : 7,
                    "material" : 1
                }
            ]
        },
        {
            "name" : "haruhi no",
            "primitives" : [
                {
                    "attributes" : {
                        "POSITION" : 8,
                        "NORMAL" : 9,
                        "TEXCOORD_0" : 10
                    },
                    "indices" : 11,
                    "material" : 2
                },
                {
                    "attributes" : {
                        "POSITION" : 12,
                        "NORMAL" : 13,
                        "TEXCOORD_0" : 14
                    },
                    "indices" : 15,
                    "material" : 3
                },
                {
                    "attributes" : {
                        "POSITION" : 16,
                        "NORMAL" : 17,
                        "TEXCOORD_0" : 18
                    },
                    "indices" : 19,
                    "material" : 4
                }
            ]
        },
        {
            "name" : "Text",
            "primitives" : [
                {
                    "attributes" : {
                        "POSITION" : 20,
                        "NORMAL" : 21,
                        "TEXCOORD_0" : 22
                    },
                    "indices" : 23,
                    "material" : 5
                }
            ]
        }
    ],
    "accessors" : [
        {
            "bufferView" : 0,
            "componentType" : 5126,
            "count" : 120,
            "max" : [
                25.776199340820312,
                0.021353701129555702,
                0.8994454741477966
            ],
            "min" : [
                -25.77051544189453,
                -5.018007755279541,
                -1.1530020236968994
            ],
            "type" : "VEC3"
        },
        {
            "bufferView" : 1,
            "componentType" : 5126,
            "count" : 120,
            "type" : "VEC3"
        },
        {
            "bufferView" : 2,
            "componentType" : 5126,
            "count" : 120,
            "type" : "VEC2"
        },
        {
            "bufferView" : 3,
            "componentType" : 5123,
            "count" : 180,
            "type" : "SCALAR"
        },
        {
            "bufferView" : 4,
            "componentType" : 5126,
            "count" : 368,
            "max" : [
                0.24875196814537048,
                1.0148242712020874,
                0.8740453720092773
            ],
            "min" : [
                -0.03149327635765076,
                -0.9982194304466248,
                -0.8429422974586487
            ],
            "type" : "VEC3"
        },
        {
            "bufferView" : 5,
            "componentType" : 5126,
            "count" : 368,
            "type" : "VEC3"
        },
        {
            "bufferView" : 6,
            "componentType" : 5126,
            "count" : 368,
            "type" : "VEC2"
        },
        {
            "bufferView" : 7,
            "componentType" : 5123,
            "count" : 720,
            "type" : "SCALAR"
        },
        {
            "bufferView" : 8,
            "componentType" : 5126,
            "count" : 92,
            "max" : [
                0.06397940963506699,
                0,
                0.06397940963506699
            ],
            "min" : [
                -0.06397940963506699,
                0,
                -0.06397940963506699
            ],
            "type" : "VEC3"
        },
        {
            "bufferView" : 9,
            "componentType" : 5126,
            "count" : 92,
            "type" : "VEC3"
        },
        {
            "bufferView" : 10,
            "componentType" : 5126,
            "count" : 92,
            "type" : "VEC2"
        },
        {
            "bufferView" : 11,
            "componentType" : 5123,
            "count" : 276,
            "type" : "SCALAR"
        },
        {
            "bufferView" : 12,
            "componentType" : 5126,
            "count" : 354,
            "max" : [
                0.08000004291534424,
                0,
                0.08000004291534424
            ],
            "min" : [
                -0.08000004291534424,
                -0.010264845564961433,
                -0.08000004291534424
            ],
            "type" : "VEC3"
        },
        {
            "bufferView" : 13,
            "componentType" : 5126,
            "count" : 354,
            "type" : "VEC3"
        },
        {
            "bufferView" : 14,
            "componentType" : 5126,
            "count" : 354,
            "type" : "VEC2"
        },
        {
            "bufferView" : 15,
            "componentType" : 5123,
            "count" : 666,
            "type" : "SCALAR"
        },
        {
            "bufferView" : 16,
            "componentType" : 5126,
            "count" : 60,
            "max" : [
                0.0503116175532341,
                0,
                0.04340900853276253
            ],
            "min" : [
                -0.050039246678352356,
                0,
                -0.04958559200167656
            ],
            "type" : "VEC3"
        },
        {
            "bufferView" : 17,
            "componentType" : 5126,
            "count" : 60,
            "type" : "VEC3"
        },
        {
            "bufferView" : 18,
            "componentType" : 5126,
            "count" : 60,
            "type" : "VEC2"
        },
        {
            "bufferView" : 19,
            "componentType" : 5123,
            "count" : 174,
            "type" : "SCALAR"
        },
        {
            "bufferView" : 20,
            "componentType" : 5126,
            "count" : 2010,
            "max" : [
                1.0347388982772827,
                0.004999999888241291,
                0.035190001130104065
            ],
            "min" : [
                0.011475000530481339,
                -0.004999999888241291,
                -0.10572300851345062
            ],
            "type" : "VEC3"
        },
        {
            "bufferView" : 21,
            "componentType" : 5126,
            "count" : 2010,
            "type" : "VEC3"
        },
        {
            "bufferView" : 22,
            "componentType" : 5126,
            "count" : 2010,
            "type" : "VEC2"
        },
        {
            "bufferView" : 23,
            "componentType" : 5123,
            "count" : 3708,
            "type" : "SCALAR"
        }
    ],
    "bufferViews" : [
        {
            "buffer" : 0,
            "byteLength" : 1440,
            "byteOffset" : 0
        },
        {
            "buffer" : 0,
            "byteLength" : 1440,
            "byteOffset" : 1440
        },
        {
            "buffer" : 0,
            "byteLength" : 960,
            "byteOffset" : 2880
        },
        {
            "buffer" : 0,
            "byteLength" : 360,
            "byteOffset" : 3840
        },
        {
            "buffer" : 0,
            "byteLength" : 4416,
            "byteOffset" : 4200
        },
        {
            "buffer" : 0,
            "byteLength" : 4416,
            "byteOffset" : 8616
        },
        {
            "buffer" : 0,
            "byteLength" : 2944,
            "byteOffset" : 13032
        },
        {
            "buffer" : 0,
            "byteLength" : 1440,
            "byteOffset" : 15976
        },
        {
            "buffer" : 0,
            "byteLength" : 1104,
            "byteOffset" : 17416
        },
        {
            "buffer" : 0,
            "byteLength" : 1104,
            "byteOffset" : 18520
        },
        {
            "buffer" : 0,
            "byteLength" : 736,
            "byteOffset" : 19624
        },
        {
            "buffer" : 0,
            "byteLength" : 552,
            "byteOffset" : 20360
        },
        {
            "buffer" : 0,
            "byteLength" : 4248,
            "byteOffset" : 20912
        },
        {
            "buffer" : 0,
            "byteLength" : 4248,
            "byteOffset" : 25160
        },
        {
            "buffer" : 0,
            "byteLength" : 2832,
            "byteOffset" : 29408
        },
        {
            "buffer" : 0,
            "byteLength" : 1332,
            "byteOffset" : 32240
        },
        {
            "buffer" : 0,
            "byteLength" : 720,
            "byteOffset" : 33572
        },
        {
            "buffer" : 0,
            "byteLength" : 720,
            "byteOffset" : 34292
        },
        {
            "buffer" : 0,
            "byteLength" : 480,
            "byteOffset" : 35012
        },
        {
            "buffer" : 0,
            "byteLength" : 348,
            "byteOffset" : 35492
        },
        {
            "buffer" : 0,
            "byteLength" : 24120,
            "byteOffset" : 35840
        },
        {
            "buffer" : 0,
            "byteLength" : 24120,
            "byteOffset" : 59960
        },
        {
            "buffer" : 0,
            "byteLength" : 16080,
            "byteOffset" : 84080
        },
        {
            "buffer" : 0,
            "byteLength" : 7416,
            "byteOffset" : 100160
        }
    ],
    "buffers" : [
        {
            "byteLength" : 107576,
            "uri" : "data:application/octet-stream;base64,"
        }
    ]
}
